
nColumns=19
nRows=117
DataType=double
version=3
OpenSimVersion=4.4-2022-10-11-798caa840
endheader
time	ground_force_calcn_r_vx	ground_force_calcn_r_vy	ground_force_calcn_r_vz	ground_force_calcn_r_px	ground_force_calcn_r_py	ground_force_calcn_r_pz	ground_force_calcn_r_mx	ground_force_calcn_r_my	ground_force_calcn_r_mz	ground_force_calcn_l_vx	ground_force_calcn_l_vy	ground_force_calcn_l_vz	ground_force_calcn_l_px	ground_force_calcn_l_py	ground_force_calcn_l_pz	ground_force_calcn_l_mx	ground_force_calcn_l_my	ground_force_calcn_l_mz
1.42	-29.0126	38.7364	-7.11821	-0.1311	0	-0.393243	-0.177643	0.237182	-0.0435845	0	0	0	0	0	0	0	0	0
1.43	-321.777	515.577	-79.9845	-0.140395	0	-0.387607	-1.10074	1.7637	-0.273612	-24.8686	36.9481	2.18063	-0.0502366	0	-0.657794	0.503677	-0.748332	-0.0441656
1.44	-457.715	946.586	-139.762	-0.143317	0	-0.389445	-2.3468	4.85334	-0.716591	-243.508	387.442	-1.88277	-0.09485739999999999	0	-0.702222	0.506702	-0.806207	0.00391775
1.45	-121.801	1061.5	-100.975	-0.164647	0	-0.391849	-0.706973	6.16131	-0.586094	-370.028	645.351	11.3726	-0.097234	0	-0.704051	0.715957	-1.24867	-0.0220046
1.46	-42.4745	1515.38	-92.0123	-0.204709	0	-0.402212	0.0629609	-2.24629	0.136392	-168.676	671.451	51.895	-0.112384	0	-0.706811	0.316144	-1.25848	-0.09726509999999999
1.47	-105.844	2009.93	-0.876093	-0.230175	0	-0.41456	0.828059	-15.7244	0.00685401	-70.69159999999999	996.054	86.3557	-0.168712	0	-0.713765	-0.400089	5.63731	0.488742
1.48	-220.664	1825.76	81.0902	-0.224723	0	-0.417868	2.80224	-23.1855	-1.02977	11.5093	1627.66	59.7446	-0.215523	0	-0.712721	0.105179	14.8745	0.545979
1.49	-333.95	1427.06	-1.0258	-0.203135	0	-0.410539	4.27594	-18.2723	0.0131344	-30.0517	1601.81	-0.0845308	-0.218783	0	-0.710216	-0.368669	19.6507	-0.00103701
1.5	-321.079	1230.33	-112.765	-0.190179	0	-0.402615	2.02744	-7.76885	0.712046	-230.995	1178.61	-7.33383	-0.191558	0	-0.710608	-3.54079	18.0663	-0.112416
1.51	-257.134	1220.79	-141.708	-0.191634	0	-0.40129	0.648488	-3.07881	0.357385	-267.97	1018.38	39.8907	-0.176265	0	-0.713551	-3.64319	13.8454	0.542336
1.52	-193.822	1339.89	-92.95910000000001	-0.201428	0	-0.406147	0.863053	-5.96627	0.41393	-180.855	1116.33	93.38800000000001	-0.188311	0	-0.71526	-2.02689	12.511	1.04663
1.53	-122.755	1509.29	-22.2627	-0.211327	0	-0.41215	0.901706	-11.0866	0.163532	-101.688	1217.46	88.9813	-0.198657	0	-0.713664	-1.17294	14.0431	1.02638
1.54	-68.83929999999999	1608.74	3.69146	-0.215393	0	-0.4144	0.563158	-13.1607	-0.030199	-83.8574	1245.05	60.7177	-0.200546	0	-0.711192	-1.07767	16.0003	0.780296
1.55	-62.4792	1588.89	-29.4772	-0.212482	0	-0.412169	0.43365	-11.028	0.204592	-85.1005	1243.8	58.7022	-0.199785	0	-0.7100959999999999	-1.11908	16.3561	0.771938
1.56	-83.2336	1501.06	-65.73869999999999	-0.205495	0	-0.408468	0.443748	-8.002700000000001	0.350477	-69.5793	1256.51	73.1893	-0.200702	0	-0.70968	-0.877562	15.8476	0.9230930000000001
1.57	-90.9361	1418.6	-71.0106	-0.199113	0	-0.406049	0.435986	-6.80135	0.340455	-39.3211	1272.32	77.5634	-0.202677	0	-0.70882	-0.498495	16.1299	0.983314
1.58	-79.1251	1365.4	-58.9046	-0.19506	0	-0.405034	0.397423	-6.858	0.295861	-18.2976	1257.42	68.3865	-0.202881	0	-0.707573	-0.246364	16.9303	0.920775
1.59	-59.9637	1327.85	-52.9485	-0.192428	0	-0.404161	0.300608	-6.65675	0.26544	-14.7921	1210.54	63.1459	-0.200476	0	-0.706698	-0.209314	17.1296	0.893541
1.6	-39.7915	1296.7	-54.1741	-0.190496	0	-0.40322	0.190373	-6.20374	0.259183	-20.3845	1169.34	67.0938	-0.197314	0	-0.706511	-0.290125	16.6428	0.95492
1.61	-24.9373	1267.9	-52.1653	-0.188755	0	-0.402693	0.127656	-6.49044	0.267037	-22.641	1161.06	77.59269999999999	-0.195733	0	-0.706954	-0.310723	15.9343	1.06487
1.62	-25.0319	1244.64	-48.2636	-0.18671	0	-0.402606	0.15514	-7.71389	0.299123	-20.1112	1172.93	87.2788	-0.195375	0	-0.707568	-0.263653	15.3768	1.1442
1.63	-37.209	1234.19	-46.8761	-0.18471	0	-0.402782	0.279914	-9.28454	0.352638	-22.3962	1180.94	89.2668	-0.194457	0	-0.707905	-0.287728	15.1717	1.14683
1.64	-48.8685	1235.48	-46.5636	-0.183291	0	-0.40314	0.420684	-10.6356	0.400842	-29.7934	1187.17	85.751	-0.193175	0	-0.708008	-0.384936	15.3385	1.10792
1.65	-57.7497	1239.53	-46.8325	-0.182117	0	-0.403494	0.534721	-11.4772	0.433635	-35.2228	1199.69	84.2334	-0.192483	0	-0.7082619999999999	-0.451552	15.3799	1.07986
1.66	-67.9727	1238.22	-47.9959	-0.180834	0	-0.40372	0.657111	-11.9702	0.463989	-39.2437	1210.91	87.1639	-0.191998	0	-0.708788	-0.488911	15.0859	1.08592
1.67	-79.53530000000001	1234.03	-48.6555	-0.179624	0	-0.404038	0.79731	-12.3706	0.487752	-46.0983	1215.5	90.1832	-0.191056	0	-0.709163	-0.558075	14.7151	1.09178
1.68	-89.3729	1234.3	-48.6405	-0.178783	0	-0.404499	0.915311	-12.6411	0.49815	-54.3842	1216.17	91.29900000000001	-0.189577	0	-0.708833	-0.643025	14.3797	1.0795
1.69	-96.0108	1237.19	-49.6964	-0.178092	0	-0.404821	0.9675280000000001	-12.4676	0.5008049999999999	-61.3756	1213.61	89.79600000000001	-0.188143	0	-0.70797	-0.7153620000000001	14.1452	1.04662
1.7	-101.83	1235.54	-52.5655	-0.177132	0	-0.404923	0.963733	-11.6933	0.497486	-66.97320000000001	1207.58	90.99760000000001	-0.187014	0	-0.7071730000000001	-0.756619	13.6424	1.02803
1.71	-108.474	1225.04	-56.2115	-0.175899	0	-0.404791	0.930864	-10.5127	0.482378	-69.9619	1197.64	96.8107	-0.186174	0	-0.706603	-0.751289	12.8609	1.03961
1.72	-111.263	1210.11	-59.2475	-0.174855	0	-0.404532	0.848464	-9.22799	0.451805	-70.49720000000001	1189.21	103.369	-0.185233	0	-0.70606	-0.718178	12.1149	1.05306
1.73	-107.922	1202.37	-63.2412	-0.174209	0	-0.404192	0.72059	-8.02814	0.422258	-71.7159	1183.76	107.581	-0.183226	0	-0.7055360000000001	-0.69634	11.4939	1.04458
1.74	-100.326	1200.87	-67.9385	-0.173258	0	-0.403759	0.617115	-7.38664	0.417896	-76.5386	1178.25	110.65	-0.179313	0	-0.705307	-0.705213	10.8562	1.01951
1.75	-94.7617	1193.28	-69.37130000000001	-0.17093	0	-0.403184	0.606132	-7.63267	0.443725	-88.5395	1165.88	111.979	-0.173036	0	-0.705294	-0.770439	10.145	0.974399
1.76	-95.4554	1174.78	-66.6234	-0.167094	0	-0.402662	0.6798920000000001	-8.36753	0.474533	-106.527	1143.41	111.257	-0.164735	0	-0.7054	-0.859788	9.22861	0.897964
1.77	-101.936	1148.78	-64.1824	-0.162352	0	-0.402086	0.789843	-8.90122	0.497313	-126.69	1114.4	111.929	-0.155302	0	-0.705674	-0.884042	7.77628	0.781043
1.78	-110.76	1119.5	-64.6546	-0.157427	0	-0.401213	0.880706	-8.90166	0.514101	-150.495	1080.9	114.382	-0.145162	0	-0.706227	-0.815505	5.85721	0.619815
1.79	-120.169	1091.58	-65.03440000000001	-0.153097	0	-0.400384	0.968731	-8.79965	0.524268	-175.334	1037.44	114.784	-0.134081	0	-0.706808	-0.6547230000000001	3.87394	0.428618
1.8	-127.383	1062.05	-62.8845	-0.149659	0	-0.399744	1.04899	-8.745939999999999	0.517852	-193.223	980.7380000000001	109.03	-0.12287	0	-0.706887	-0.417293	2.11805	0.235465
1.81	-130.873	1023.24	-60.4702	-0.146687	0	-0.398927	1.07134	-8.37635	0.495015	-192.076	911.825	96.8926	-0.113781	0	-0.706337	-0.170757	0.81062	0.0861383
1.82	-126.652	967.285	-59.9354	-0.143934	0	-0.397667	0.961485	-7.34321	0.455004	-163.646	820.228	82.3115	-0.107854	0	-0.705724	-0.0114937	0.0576087	0.00578115
1.83	-109.406	887.125	-60.051	-0.141632	0	-0.395682	0.713668	-5.78682	0.39172	-111.005	681.295	66.5994	-0.10336	0	-0.705898	0.0125522	-0.0770397	-0.00753094
1.84	-77.02930000000001	773.806	-55.9102	-0.139832	0	-0.392631	0.422342	-4.24269	0.306549	-40.7154	464.81	47.3531	-0.0985964	0	-0.707433	-0.0234451	0.26765	0.0272672
1.85	-28.9244	600.554	-39.5237	-0.138007	0	-0.388343	0.157662	-3.27352	0.215437	17.3814	196.104	25.0585	-0.08939279999999999	0	-0.707672	0.0504295	0.5689650000000001	0.0727033
1.86	23.1641	353.682	-7.78958	-0.134115	0	-0.383737	-0.173953	-2.65601	0.0584966	19.3699	23.6575	7.82387	-0.0221705	0	-0.65903	0.277012	0.338331	0.111891
1.87	42.722	124.675	13.2494	-0.124951	0	-0.382675	-0.5014380000000001	-1.46334	-0.155512	0	0	0	0	0	0	0	0	0
1.88	0	0	0	0	0	0	0	0	0	0	0	0	0	0	0	0	0	0
1.89	0	0	0	0	0	0	0	0	0	0	0	0	0	0	0	0	0	0
1.9	0	0	0	0	0	0	0	0	0	0	0	0	0	0	0	0	0	0
1.91	0	0	0	0	0	0	0	0	0	0	0	0	0	0	0	0	0	0
1.92	0	0	0	0	0	0	0	0	0	0	0	0	0	0	0	0	0	0
1.93	0	0	0	0	0	0	0	0	0	0	0	0	0	0	0	0	0	0
1.94	0	0	0	0	0	0	0	0	0	0	0	0	0	0	0	0	0	0
1.95	0	0	0	0	0	0	0	0	0	0	0	0	0	0	0	0	0	0
1.96	0	0	0	0	0	0	0	0	0	0	0	0	0	0	0	0	0	0
1.97	0	0	0	0	0	0	0	0	0	0	0	0	0	0	0	0	0	0
1.98	0	0	0	0	0	0	0	0	0	0	0	0	0	0	0	0	0	0
1.99	0	0	0	0	0	0	0	0	0	0	0	0	0	0	0	0	0	0
2	0	0	0	0	0	0	0	0	0	0	0	0	0	0	0	0	0	0
2.01	0	0	0	0	0	0	0	0	0	0	0	0	0	0	0	0	0	0
2.02	0	0	0	0	0	0	0	0	0	0	0	0	0	0	0	0	0	0
2.03	0	0	0	0	0	0	0	0	0	0	0	0	0	0	0	0	0	0
2.04	0	0	0	0	0	0	0	0	0	0	0	0	0	0	0	0	0	0
2.05	0	0	0	0	0	0	0	0	0	0	0	0	0	0	0	0	0	0
2.06	0	0	0	0	0	0	0	0	0	0	0	0	0	0	0	0	0	0
2.07	0	0	0	0	0	0	0	0	0	0	0	0	0	0	0	0	0	0
2.08	0	0	0	0	0	0	0	0	0	0	0	0	0	0	0	0	0	0
2.09	0	0	0	0	0	0	0	0	0	0	0	0	0	0	0	0	0	0
2.1	0	0	0	0	0	0	0	0	0	0	0	0	0	0	0	0	0	0
2.11	0	0	0	0	0	0	0	0	0	0	0	0	0	0	0	0	0	0
2.12	0	0	0	0	0	0	0	0	0	0	0	0	0	0	0	0	0	0
2.13	0	0	0	0	0	0	0	0	0	0	0	0	0	0	0	0	0	0
2.14	0	0	0	0	0	0	0	0	0	0	0	0	0	0	0	0	0	0
2.15	0	0	0	0	0	0	0	0	0	0	0	0	0	0	0	0	0	0
2.16	0	0	0	0	0	0	0	0	0	0	0	0	0	0	0	0	0	0
2.17	0	0	0	0	0	0	0	0	0	0	0	0	0	0	0	0	0	0
2.18	0	0	0	0	0	0	0	0	0	0	0	0	0	0	0	0	0	0
2.19	0	0	0	0	0	0	0	0	0	0	0	0	0	0	0	0	0	0
2.2	0	0	0	0	0	0	0	0	0	0	0	0	0	0	0	0	0	0
2.21	0	0	0	0	0	0	0	0	0	0	0	0	0	0	0	0	0	0
2.22	0	0	0	0	0	0	0	0	0	0	0	0	0	0	0	0	0	0
2.23	0	0	0	0	0	0	0	0	0	0	0	0	0	0	0	0	0	0
2.24	0	0	0	0	0	0	0	0	0	0	0	0	0	0	0	0	0	0
2.25	0	0	0	0	0	0	0	0	0	0	0	0	0	0	0	0	0	0
2.26	0	0	0	0	0	0	0	0	0	0	0	0	0	0	0	0	0	0
2.27	0	0	0	0	0	0	0	0	0	0	0	0	0	0	0	0	0	0
2.28	0	0	0	0	0	0	0	0	0	0	0	0	0	0	0	0	0	0
2.29	0	0	0	0	0	0	0	0	0	0	0	0	0	0	0	0	0	0
2.3	0	0	0	0	0	0	0	0	0	0	0	0	0	0	0	0	0	0
2.31	0	0	0	0	0	0	0	0	0	0	0	0	0	0	0	0	0	0
2.32	0	0	0	0	0	0	0	0	0	0	0	0	0	0	0	0	0	0
2.33	0	0	0	0	0	0	0	0	0	0	0	0	0	0	0	0	0	0
2.34	0	0	0	0	0	0	0	0	0	0	0	0	0	0	0	0	0	0
2.35	0	0	0	0	0	0	0	0	0	0	0	0	0	0	0	0	0	0
2.36	0	0	0	0	0	0	0	0	0	0	0	0	0	0	0	0	0	0
2.37	0	0	0	0	0	0	0	0	0	0	0	0	0	0	0	0	0	0
2.38	0	0	0	0	0	0	0	0	0	0	0	0	0	0	0	0	0	0
2.39	0	0	0	0	0	0	0	0	0	0	0	0	0	0	0	0	0	0
2.4	0	0	0	0	0	0	0	0	0	0	0	0	0	0	0	0	0	0
2.41	0	0	0	0	0	0	0	0	0	0	0	0	0	0	0	0	0	0
2.42	0	0	0	0	0	0	0	0	0	0	0	0	0	0	0	0	0	0
2.43	0	0	0	0	0	0	0	0	0	0	0	0	0	0	0	0	0	0
2.44	0	0	0	0	0	0	0	0	0	0	0	0	0	0	0	0	0	0
2.45	0	0	0	0	0	0	0	0	0	0	0	0	0	0	0	0	0	0
2.46	0	0	0	0	0	0	0	0	0	0	0	0	0	0	0	0	0	0
2.47	0	0	0	0	0	0	0	0	0	0	0	0	0	0	0	0	0	0
2.48	-178.042	374.943	-67.9392	-0.147706	0	-0.276384	-0.55584	1.17056	-0.212103	0	0	0	0	0	0	0	0	0
2.49	-345.614	976.025	-155.182	-0.154599	0	-0.274072	-1.09886	3.10322	-0.493395	-90.1399	155.766	3.13593	-0.109961	0	-0.694373	0.473479	-0.818192	-0.0164721
2.5	-42.0043	1252.39	-131.311	-0.172598	0	-0.272996	-0.322568	9.61759	-1.00839	-284.289	536.725	-1.1032	-0.125997	0	-0.708742	-0.0768411	0.145073	-0.000298186
2.51	121.51	1884.74	-214.779	-0.211002	0	-0.283177	0.695964	10.7951	-1.23017	-150.853	559.16	33.1809	-0.138826	0	-0.716351	-0.186774	0.692308	0.041082
2.52	249.436	2883.5	-206.295	-0.250833	0	-0.303259	-0.447951	-5.17835	0.370476	55.2198	518.523	66.56100000000001	-0.158896	0	-0.722042	-0.205339	-1.92817	-0.247512
2.53	299.257	3133.77	-21.2585	-0.26316	0	-0.315659	-2.11692	-22.168	0.150381	99.4096	628.11	91.4408	-0.183488	0	-0.72446	-0.414782	-2.62076	-0.381532
2.54	-42.8072	2515.76	-43.476	-0.246506	0	-0.312541	0.47862	-28.1282	0.486097	85.0189	939.1849999999999	145.584	-0.213398	0	-0.722133	0.00327649	0.0361947	0.00561057
2.55	-302.602	1861.61	-169.169	-0.216295	0	-0.298652	3.35297	-20.6275	1.87447	65.42489999999999	1182.94	147.386	-0.2266	0	-0.715869	0.29906	5.40729	0.673708
2.56	-275.545	1597.14	-222.59	-0.200898	0	-0.290214	2.02937	-11.7629	1.63937	-16.8838	1044.23	80.8926	-0.212999	0	-0.7088410000000001	-0.151077	9.343819999999999	0.7238289999999999
2.57	-156.792	1649.31	-216.44	-0.207152	0	-0.292081	0.8630370000000001	-9.07837	1.19136	-128.047	813.134	55.182	-0.183138	0	-0.706132	-1.42093	9.023239999999999	0.612347
2.58	-68.4928	1733.77	-176.175	-0.215576	0	-0.296534	0.422703	-10.6999	1.08727	-163.86	686.933	53.9859	-0.162871	0	-0.705419	-1.63081	6.83664	0.53729
